<mxfile host="app.diagrams.net" modified="2022-12-02T19:54:00.345Z" agent="5.0 (Macintosh; Intel Mac OS X 10_15_7) AppleWebKit/537.36 (KHTML, like Gecko) Chrome/107.0.0.0 Safari/537.36" version="20.6.0" etag="b3rlLqVpBbyzkZsRQh7P" type="github">
  <diagram id="Iy70mCzCKJFpxcGli6i_" name="Page-1">
    <mxGraphModel dx="1426" dy="801" grid="1" gridSize="10" guides="1" tooltips="1" connect="1" arrows="1" fold="1" page="1" pageScale="1" pageWidth="850" pageHeight="1100" math="0" shadow="0">
      <root>
        <mxCell id="0" />
        <mxCell id="1" parent="0" />
        <mxCell id="mNEBTaRFAyoqbIbfhplp-5" style="edgeStyle=orthogonalEdgeStyle;rounded=0;orthogonalLoop=1;jettySize=auto;html=1;exitX=0.5;exitY=1;exitDx=0;exitDy=0;entryX=0.5;entryY=0;entryDx=0;entryDy=0;fontFamily=Verdana;fontSize=13;" edge="1" parent="1" source="mNEBTaRFAyoqbIbfhplp-1" target="mNEBTaRFAyoqbIbfhplp-3">
          <mxGeometry relative="1" as="geometry" />
        </mxCell>
        <mxCell id="mNEBTaRFAyoqbIbfhplp-6" style="edgeStyle=orthogonalEdgeStyle;rounded=0;orthogonalLoop=1;jettySize=auto;html=1;exitX=0.5;exitY=1;exitDx=0;exitDy=0;entryX=0.5;entryY=0;entryDx=0;entryDy=0;fontFamily=Verdana;fontSize=13;" edge="1" parent="1" source="mNEBTaRFAyoqbIbfhplp-1" target="mNEBTaRFAyoqbIbfhplp-4">
          <mxGeometry relative="1" as="geometry" />
        </mxCell>
        <mxCell id="mNEBTaRFAyoqbIbfhplp-1" value="Protección en Linea" style="rounded=1;whiteSpace=wrap;html=1;fillColor=#ffe6cc;strokeColor=#d79b00;fontFamily=Nunito;fontSource=https%3A%2F%2Ffonts.googleapis.com%2Fcss%3Ffamily%3DNunito;fontStyle=1;fontSize=13;" vertex="1" parent="1">
          <mxGeometry x="70" y="10" width="125" height="30" as="geometry" />
        </mxCell>
        <mxCell id="mNEBTaRFAyoqbIbfhplp-12" style="edgeStyle=orthogonalEdgeStyle;rounded=0;orthogonalLoop=1;jettySize=auto;html=1;exitX=0.5;exitY=1;exitDx=0;exitDy=0;entryX=0.5;entryY=0;entryDx=0;entryDy=0;fontFamily=Verdana;fontSize=13;" edge="1" parent="1" source="mNEBTaRFAyoqbIbfhplp-3" target="mNEBTaRFAyoqbIbfhplp-7">
          <mxGeometry relative="1" as="geometry" />
        </mxCell>
        <mxCell id="mNEBTaRFAyoqbIbfhplp-13" style="edgeStyle=orthogonalEdgeStyle;rounded=0;orthogonalLoop=1;jettySize=auto;html=1;exitX=0.5;exitY=1;exitDx=0;exitDy=0;entryX=0.5;entryY=0;entryDx=0;entryDy=0;fontFamily=Verdana;fontSize=13;" edge="1" parent="1" source="mNEBTaRFAyoqbIbfhplp-3" target="mNEBTaRFAyoqbIbfhplp-8">
          <mxGeometry relative="1" as="geometry" />
        </mxCell>
        <mxCell id="mNEBTaRFAyoqbIbfhplp-14" style="edgeStyle=orthogonalEdgeStyle;rounded=0;orthogonalLoop=1;jettySize=auto;html=1;exitX=0.5;exitY=1;exitDx=0;exitDy=0;fontFamily=Verdana;fontSize=13;" edge="1" parent="1" source="mNEBTaRFAyoqbIbfhplp-3" target="mNEBTaRFAyoqbIbfhplp-9">
          <mxGeometry relative="1" as="geometry" />
        </mxCell>
        <mxCell id="mNEBTaRFAyoqbIbfhplp-15" style="edgeStyle=orthogonalEdgeStyle;rounded=0;orthogonalLoop=1;jettySize=auto;html=1;exitX=0.5;exitY=1;exitDx=0;exitDy=0;fontFamily=Verdana;fontSize=13;" edge="1" parent="1" source="mNEBTaRFAyoqbIbfhplp-3" target="mNEBTaRFAyoqbIbfhplp-10">
          <mxGeometry relative="1" as="geometry" />
        </mxCell>
        <mxCell id="mNEBTaRFAyoqbIbfhplp-16" style="edgeStyle=orthogonalEdgeStyle;rounded=0;orthogonalLoop=1;jettySize=auto;html=1;exitX=0.5;exitY=1;exitDx=0;exitDy=0;entryX=0.5;entryY=0;entryDx=0;entryDy=0;fontFamily=Verdana;fontSize=13;" edge="1" parent="1" source="mNEBTaRFAyoqbIbfhplp-3" target="mNEBTaRFAyoqbIbfhplp-11">
          <mxGeometry relative="1" as="geometry" />
        </mxCell>
        <mxCell id="mNEBTaRFAyoqbIbfhplp-3" value="Página de Inicio" style="rounded=1;whiteSpace=wrap;html=1;fontFamily=Nunito;fontSource=https%3A%2F%2Ffonts.googleapis.com%2Fcss%3Ffamily%3DNunito;fontStyle=1;fontSize=13;" vertex="1" parent="1">
          <mxGeometry x="70" y="80" width="125" height="40" as="geometry" />
        </mxCell>
        <mxCell id="mNEBTaRFAyoqbIbfhplp-4" value="Administración" style="rounded=1;whiteSpace=wrap;html=1;fontFamily=Nunito;fontSource=https%3A%2F%2Ffonts.googleapis.com%2Fcss%3Ffamily%3DNunito;fontStyle=1;fontSize=13;" vertex="1" parent="1">
          <mxGeometry x="460" y="80" width="125" height="40" as="geometry" />
        </mxCell>
        <mxCell id="mNEBTaRFAyoqbIbfhplp-19" style="edgeStyle=orthogonalEdgeStyle;rounded=0;orthogonalLoop=1;jettySize=auto;html=1;exitX=0.5;exitY=1;exitDx=0;exitDy=0;entryX=0;entryY=0.5;entryDx=0;entryDy=0;fontFamily=Verdana;fontSize=13;" edge="1" parent="1" source="mNEBTaRFAyoqbIbfhplp-7" target="mNEBTaRFAyoqbIbfhplp-17">
          <mxGeometry relative="1" as="geometry" />
        </mxCell>
        <mxCell id="mNEBTaRFAyoqbIbfhplp-21" style="edgeStyle=orthogonalEdgeStyle;rounded=0;orthogonalLoop=1;jettySize=auto;html=1;exitX=0.5;exitY=1;exitDx=0;exitDy=0;entryX=0;entryY=0.5;entryDx=0;entryDy=0;fontFamily=Verdana;fontSize=13;" edge="1" parent="1" source="mNEBTaRFAyoqbIbfhplp-7" target="mNEBTaRFAyoqbIbfhplp-20">
          <mxGeometry relative="1" as="geometry" />
        </mxCell>
        <mxCell id="mNEBTaRFAyoqbIbfhplp-7" value="Porteria" style="rounded=1;whiteSpace=wrap;html=1;fontFamily=Nunito;fontSource=https%3A%2F%2Ffonts.googleapis.com%2Fcss%3Ffamily%3DNunito;fontStyle=1;fontSize=13;" vertex="1" parent="1">
          <mxGeometry x="70" y="180" width="125" height="40" as="geometry" />
        </mxCell>
        <mxCell id="mNEBTaRFAyoqbIbfhplp-8" value="Panel de control" style="rounded=1;whiteSpace=wrap;html=1;fontFamily=Nunito;fontSource=https%3A%2F%2Ffonts.googleapis.com%2Fcss%3Ffamily%3DNunito;fontStyle=1;fontSize=13;" vertex="1" parent="1">
          <mxGeometry x="240" y="180" width="125" height="40" as="geometry" />
        </mxCell>
        <mxCell id="mNEBTaRFAyoqbIbfhplp-9" value="Gestión de riesgos" style="rounded=1;whiteSpace=wrap;html=1;fontFamily=Nunito;fontSource=https%3A%2F%2Ffonts.googleapis.com%2Fcss%3Ffamily%3DNunito;fontStyle=1;fontSize=13;" vertex="1" parent="1">
          <mxGeometry x="410" y="180" width="125" height="40" as="geometry" />
        </mxCell>
        <mxCell id="mNEBTaRFAyoqbIbfhplp-10" value="Minutas" style="rounded=1;whiteSpace=wrap;html=1;fontFamily=Nunito;fontSource=https%3A%2F%2Ffonts.googleapis.com%2Fcss%3Ffamily%3DNunito;fontStyle=1;fontSize=13;" vertex="1" parent="1">
          <mxGeometry x="580" y="180" width="125" height="40" as="geometry" />
        </mxCell>
        <mxCell id="mNEBTaRFAyoqbIbfhplp-11" value="Perfil" style="rounded=1;whiteSpace=wrap;html=1;fontFamily=Nunito;fontSource=https%3A%2F%2Ffonts.googleapis.com%2Fcss%3Ffamily%3DNunito;fontStyle=1;fontSize=13;" vertex="1" parent="1">
          <mxGeometry x="750" y="180" width="125" height="40" as="geometry" />
        </mxCell>
        <mxCell id="mNEBTaRFAyoqbIbfhplp-17" value="Noticias destacadas" style="rounded=1;whiteSpace=wrap;html=1;fontFamily=Nunito;fontSource=https%3A%2F%2Ffonts.googleapis.com%2Fcss%3Ffamily%3DNunito;fontStyle=1;fontSize=13;" vertex="1" parent="1">
          <mxGeometry x="160" y="240" width="125" height="40" as="geometry" />
        </mxCell>
        <mxCell id="mNEBTaRFAyoqbIbfhplp-20" value="Buscar" style="rounded=1;whiteSpace=wrap;html=1;fontFamily=Nunito;fontSource=https%3A%2F%2Ffonts.googleapis.com%2Fcss%3Ffamily%3DNunito;fontStyle=1;fontSize=13;align=center;" vertex="1" parent="1">
          <mxGeometry x="160" y="300" width="125" height="40" as="geometry" />
        </mxCell>
        <mxCell id="mNEBTaRFAyoqbIbfhplp-22" value="Visitantes pendientes" style="rounded=1;whiteSpace=wrap;html=1;fontFamily=Nunito;fontSource=https%3A%2F%2Ffonts.googleapis.com%2Fcss%3Ffamily%3DNunito;fontStyle=1;fontSize=13;align=center;" vertex="1" parent="1">
          <mxGeometry x="160" y="360" width="125" height="40" as="geometry" />
        </mxCell>
        <mxCell id="mNEBTaRFAyoqbIbfhplp-23" value="Correspondencias&lt;br&gt;pendientes" style="rounded=1;whiteSpace=wrap;html=1;fontFamily=Nunito;fontSource=https%3A%2F%2Ffonts.googleapis.com%2Fcss%3Ffamily%3DNunito;fontStyle=1;fontSize=13;align=center;" vertex="1" parent="1">
          <mxGeometry x="160" y="420" width="125" height="40" as="geometry" />
        </mxCell>
        <mxCell id="mNEBTaRFAyoqbIbfhplp-24" value="Mensajes Pendientes&amp;nbsp;" style="rounded=1;whiteSpace=wrap;html=1;fontFamily=Nunito;fontSource=https%3A%2F%2Ffonts.googleapis.com%2Fcss%3Ffamily%3DNunito;fontStyle=1;fontSize=13;align=center;" vertex="1" parent="1">
          <mxGeometry x="160" y="480" width="125" height="40" as="geometry" />
        </mxCell>
        <mxCell id="mNEBTaRFAyoqbIbfhplp-25" value="Tareas Pendientes" style="rounded=1;whiteSpace=wrap;html=1;fontFamily=Nunito;fontSource=https%3A%2F%2Ffonts.googleapis.com%2Fcss%3Ffamily%3DNunito;fontStyle=1;fontSize=13;align=center;" vertex="1" parent="1">
          <mxGeometry x="160" y="540" width="125" height="40" as="geometry" />
        </mxCell>
        <mxCell id="mNEBTaRFAyoqbIbfhplp-26" value="Vehículos parqueados" style="rounded=1;whiteSpace=wrap;html=1;fontFamily=Nunito;fontSource=https%3A%2F%2Ffonts.googleapis.com%2Fcss%3Ffamily%3DNunito;fontStyle=1;fontSize=13;align=center;" vertex="1" parent="1">
          <mxGeometry x="160" y="600" width="125" height="40" as="geometry" />
        </mxCell>
        <mxCell id="mNEBTaRFAyoqbIbfhplp-27" value="Parqueaderos disponibles" style="rounded=1;whiteSpace=wrap;html=1;fontFamily=Nunito;fontSource=https%3A%2F%2Ffonts.googleapis.com%2Fcss%3Ffamily%3DNunito;fontStyle=1;fontSize=13;align=center;" vertex="1" parent="1">
          <mxGeometry x="160" y="660" width="125" height="40" as="geometry" />
        </mxCell>
        <mxCell id="mNEBTaRFAyoqbIbfhplp-28" value="Documentos de interes" style="rounded=1;whiteSpace=wrap;html=1;fontFamily=Nunito;fontSource=https%3A%2F%2Ffonts.googleapis.com%2Fcss%3Ffamily%3DNunito;fontStyle=1;fontSize=13;align=center;" vertex="1" parent="1">
          <mxGeometry x="160" y="720" width="125" height="40" as="geometry" />
        </mxCell>
      </root>
    </mxGraphModel>
  </diagram>
</mxfile>
